<?xml version="1.0" standalone="no"?>
<!DOCTYPE svg PUBLIC "-//W3C//DTD SVG 20010904//EN"
 "http://www.w3.org/TR/2001/REC-SVG-20010904/DTD/svg10.dtd">
<svg version="1.0" xmlns="http://www.w3.org/2000/svg"
 width="1024.000000pt" height="1024.000000pt" viewBox="0 0 1024.000000 1024.000000"
 preserveAspectRatio="xMidYMid meet">

<g transform="translate(0.000000,1024.000000) scale(0.100000,-0.100000)"
fill="#000000" stroke="none">
<path d="M2442 8724 c-77 -17 -177 -56 -258 -101 -183 -100 -348 -327 -406
-558 l-23 -90 1 -2815 0 -2815 23 -84 c103 -389 432 -648 846 -668 66 -3 126
-10 133 -16 8 -6 12 -6 12 2 0 6 7 11 16 11 11 0 14 -5 9 -17 -5 -14 -3 -15 6
-6 6 6 18 9 25 6 8 -3 14 0 14 6 0 16 30 13 36 -4 4 -8 10 -12 15 -9 5 3 7 10
4 15 -4 5 1 9 9 9 10 0 13 -6 10 -15 -4 -9 0 -15 10 -15 9 0 16 -6 17 -12 0
-7 5 -1 11 15 10 29 33 38 24 10 -3 -10 -1 -25 5 -33 8 -12 9 -10 4 8 -7 24 4
29 24 9 8 -6 11 -7 9 -2 -3 6 1 16 9 24 13 12 14 11 9 -7 -4 -11 -2 -23 4 -27
6 -4 9 -1 8 7 -3 15 29 18 56 5 15 -7 18 -6 13 7 -3 8 -2 18 4 21 5 4 9 3 8
-2 -1 -4 1 -16 6 -26 5 -13 11 -15 20 -7 29 24 63 21 91 -7 15 -16 22 -20 15
-11 -11 14 -10 20 2 33 10 10 17 11 19 4 2 -6 16 -11 31 -11 15 0 27 -5 27
-11 0 -5 9 -2 20 8 11 10 20 15 20 10 0 -4 8 -1 17 6 11 10 14 10 9 2 -5 -9
-1 -13 13 -13 11 0 25 -8 31 -17 9 -15 10 -14 4 7 -6 22 -5 23 9 12 9 -8 21
-11 26 -7 7 4 8 -1 5 -12 -5 -13 -2 -12 10 5 14 18 21 20 37 12 11 -6 25 -8
31 -4 8 5 9 1 5 -12 -6 -16 -4 -16 12 3 15 18 20 20 25 8 3 -8 10 -15 17 -15
6 0 9 7 6 14 -4 10 -1 13 7 10 8 -3 12 -14 9 -27 -3 -16 -2 -18 5 -8 8 11 12
10 21 -5 6 -11 11 -14 11 -8 0 5 -5 15 -12 22 -14 14 -5 25 20 27 9 0 23 4 30
9 7 4 12 2 12 -8 0 -8 -6 -16 -12 -19 -7 -2 4 -6 25 -8 36 -5 43 2 38 34 0 4
3 7 9 7 5 0 10 -5 10 -11 0 -6 7 -8 16 -5 8 3 13 2 10 -2 -2 -4 -1 -14 5 -22
7 -13 9 -12 9 3 0 9 5 17 11 17 6 0 8 -9 4 -22 l-6 -23 13 22 c10 16 17 20 28
13 23 -14 40 -12 40 6 0 8 5 12 10 9 6 -4 7 -12 3 -18 -4 -7 1 -5 12 3 16 14
17 13 11 -8 -10 -30 2 -28 14 3 8 22 13 24 30 15 17 -9 20 -8 20 7 0 13 2 15
8 5 6 -8 25 -12 55 -9 25 2 44 0 41 -4 -2 -4 0 -10 6 -14 5 -3 10 -1 10 4 0 6
7 11 16 11 9 0 12 -5 8 -12 -5 -7 -2 -9 9 -5 8 3 21 -1 27 -9 7 -8 17 -14 23
-14 5 0 2 9 -8 20 -18 20 -18 21 1 14 10 -4 24 -15 31 -23 11 -15 27 -10 29
10 3 22 5 23 13 10 8 -13 12 -13 27 0 16 13 17 12 12 -8 -4 -14 -1 -24 8 -27
9 -3 14 1 14 13 0 10 6 24 13 30 10 8 14 7 14 -4 0 -8 -5 -11 -10 -8 -6 4 -7
1 -2 -7 6 -10 13 -7 27 11 l19 24 -16 -34 -17 -34 29 21 c22 16 33 18 47 10
12 -7 17 -7 12 0 -3 5 3 12 15 15 17 5 18 3 7 -11 -8 -9 -8 -13 -1 -9 6 4 14
1 16 -5 4 -9 6 -7 6 3 1 9 9 23 18 30 15 12 16 12 10 -4 -4 -11 -3 -16 3 -12
6 3 16 3 23 -2 20 -12 41 -13 49 0 4 6 2 15 -5 19 -17 12 25 5 43 -7 20 -13
53 -14 66 -3 7 5 35 10 63 12 41 2 51 0 47 -11 -4 -9 -2 -11 7 -6 14 9 19 10
47 12 11 0 20 8 20 16 0 8 5 15 11 15 6 0 8 -8 4 -19 -4 -14 -1 -19 9 -17 9 1
18 5 22 8 11 12 33 -4 28 -20 -4 -13 -2 -12 7 2 10 16 9 21 -7 33 -15 11 -16
13 -2 13 9 0 19 -9 23 -19 8 -26 32 -46 32 -26 0 8 -3 12 -7 10 -4 -2 -7 2 -7
10 0 10 4 12 12 5 7 -5 15 -6 20 -2 4 4 4 -3 1 -15 -4 -12 -2 -24 4 -28 15 -9
28 4 14 13 -6 4 -7 18 -3 32 6 22 7 23 8 4 1 -21 28 -41 39 -29 3 3 0 5 -6 5
-24 0 -11 15 13 16 20 2 23 -1 15 -11 -8 -10 -8 -15 1 -21 8 -5 9 -3 4 6 -6
10 -2 11 19 6 22 -5 26 -3 27 16 1 16 3 18 6 6 2 -10 10 -15 19 -11 7 3 11 10
8 15 -4 6 6 2 21 -8 21 -14 31 -15 46 -6 13 9 20 9 25 0 4 -7 3 -8 -4 -4 -7 4
-12 3 -12 -2 0 -5 8 -12 19 -15 15 -3 17 0 13 17 -5 20 -4 20 15 3 20 -18 38
-23 29 -9 -3 5 1 9 9 9 18 0 19 -9 3 -25 -9 -9 -9 -12 0 -12 6 0 15 8 21 17 9
17 10 17 16 1 4 -10 12 -18 17 -18 6 0 6 6 -1 14 -10 11 -8 16 8 21 12 3 21
11 21 17 0 6 2 9 5 6 10 -9 -7 -38 -18 -31 -6 4 -7 1 -3 -6 5 -7 11 -10 14 -7
3 4 17 -1 31 -11 20 -13 23 -13 14 -1 -7 8 -9 19 -5 23 4 5 0 5 -8 0 -8 -5
-12 -4 -7 0 12 14 40 15 54 3 8 -6 16 -8 20 -4 3 3 1 6 -5 6 -7 0 -12 10 -11
23 0 14 2 17 6 7 3 -8 12 -19 20 -23 7 -5 10 -13 7 -19 -4 -7 -2 -8 5 -4 6 4
9 11 6 16 -3 4 0 10 7 12 18 6 58 -3 58 -13 0 -5 5 -9 11 -9 6 0 8 7 5 16 -5
14 -4 15 9 4 8 -7 13 -16 10 -20 -3 -5 0 -12 6 -16 8 -4 9 -3 5 4 -4 8 0 12
10 12 16 0 16 1 -2 14 -13 10 -14 14 -4 13 8 -2 21 -6 28 -10 6 -5 12 -5 12
-1 0 3 8 -4 19 -17 16 -20 21 -22 35 -10 15 13 15 15 0 32 -10 11 -12 19 -6
19 7 0 12 -5 12 -11 0 -6 6 -9 13 -6 6 2 11 10 9 16 -1 7 2 10 8 6 6 -3 8 -11
5 -16 -4 -5 1 -9 9 -9 9 0 16 6 16 13 0 9 3 8 9 -2 5 -7 20 -13 35 -13 14 0
26 -6 26 -12 0 -6 5 -4 10 5 7 12 22 16 57 14 28 -2 51 2 55 8 6 9 8 9 8 0 0
-8 14 -13 38 -13 21 0 44 -6 51 -12 10 -9 12 -9 7 -1 -8 14 6 24 20 15 6 -4
16 -16 23 -27 7 -11 10 -13 8 -5 -3 9 1 24 8 33 11 15 13 16 19 2 7 -18 23
-20 29 -2 2 6 2 2 0 -11 -2 -12 1 -22 7 -22 5 0 10 6 10 14 0 8 6 16 14 19 10
4 12 -1 9 -16 -4 -20 -3 -20 7 -4 15 23 30 22 25 -3 -2 -11 0 -20 6 -20 5 0 9
6 9 13 1 7 6 5 14 -6 12 -16 14 -16 20 -2 3 9 2 14 -3 11 -5 -3 -15 2 -22 11
-12 15 -12 16 4 10 12 -4 17 -1 18 11 0 13 2 12 9 -4 5 -12 13 -25 19 -28 7
-4 8 -1 5 8 -6 17 4 20 30 10 10 -4 13 -11 9 -18 -5 -7 0 -4 9 6 12 14 29 18
67 17 28 -1 48 -6 44 -12 -3 -5 3 -4 14 2 11 5 32 12 47 15 24 4 27 2 23 -14
-3 -11 -1 -23 4 -26 5 -3 9 10 9 28 0 23 3 29 9 19 5 -7 14 -10 20 -7 6 4 11
3 11 -3 0 -6 7 -7 17 -4 10 4 14 2 9 -5 -3 -6 -2 -13 4 -17 5 -3 10 3 10 14 0
12 5 21 10 21 6 0 10 -7 10 -15 0 -8 4 -15 10 -15 5 0 7 6 4 14 -4 11 0 13 15
9 17 -4 19 -9 10 -27 -10 -20 -10 -20 5 -2 9 11 16 23 16 28 0 4 7 5 15 2 8
-4 12 -10 9 -15 -3 -5 -9 -7 -13 -5 -4 3 -8 -1 -8 -9 0 -8 4 -15 9 -15 4 0 8
4 8 9 0 5 13 14 30 19 23 9 33 8 44 -4 19 -19 27 -18 19 3 -5 12 -2 15 10 10
12 -4 17 -1 17 11 0 14 2 14 9 3 5 -8 16 -11 26 -7 13 4 16 2 11 -9 -3 -8 -1
-15 4 -15 6 0 10 5 10 11 0 6 7 9 15 6 8 -4 17 -2 20 3 4 6 17 3 31 -6 13 -9
27 -14 31 -10 3 3 1 6 -5 6 -7 0 -12 4 -12 8 0 5 10 8 23 6 33 -4 33 -4 19
-13 -11 -6 -9 -9 6 -13 13 -4 19 -1 18 10 -1 12 9 16 34 17 19 0 41 -4 48 -9
8 -5 12 -4 12 4 0 10 3 10 15 0 8 -6 18 -9 23 -6 5 3 20 -1 35 -9 20 -10 27
-11 27 -2 0 7 4 6 10 -3 7 -12 10 -12 10 -1 0 7 6 11 14 8 10 -4 13 -1 10 7
-3 8 -1 17 5 21 6 3 11 0 11 -7 0 -8 9 -14 20 -14 13 0 19 5 16 13 -3 8 2 13
14 13 13 0 18 -5 14 -15 -5 -11 -2 -13 10 -9 9 3 13 10 10 15 -3 5 0 9 5 9 6
0 11 -4 11 -10 0 -5 5 -10 11 -10 5 0 7 5 4 10 -9 14 28 12 44 -2 9 -9 12 -9
7 -1 -4 8 17 17 66 28 108 24 265 89 344 141 158 105 252 226 338 431 60 143
57 -22 54 3039 l-3 2799 -28 88 c-34 110 -91 224 -152 304 -124 166 -350 299
-565 333 -43 6 -917 10 -2615 9 -2121 -1 -2561 -3 -2613 -15z m903 -236 c4
-29 5 -242 3 -474 l-3 -421 -48 -97 c-87 -176 -215 -277 -382 -306 -51 -8
-186 -10 -505 -4 l-435 7 2 371 c2 204 8 408 14 454 28 207 179 385 404 478
l70 29 430 5 c237 3 433 7 437 8 4 1 9 -22 13 -50z m1813 39 l1582 0 0 -428
c0 -467 6 -543 51 -659 67 -175 252 -324 470 -381 78 -20 108 -21 508 -23
l426 -1 1 -612 0 -612 -50 -6 c-28 -4 -104 -30 -169 -57 -146 -61 -193 -68
-278 -39 -49 16 -167 83 -208 117 -2 2 8 22 23 44 34 51 90 80 156 80 88 0
151 -42 185 -123 18 -44 32 -52 80 -43 29 6 35 11 35 32 0 37 -43 114 -87 156
-57 56 -124 81 -213 82 -68 1 -81 -2 -132 -32 -103 -59 -148 -127 -119 -179 8
-17 3 -25 -37 -55 -135 -102 -234 -107 -393 -21 l-67 36 -31 -22 c-17 -12 -31
-26 -31 -31 0 -15 43 -43 142 -94 90 -46 99 -48 175 -48 96 0 176 22 243 67
33 22 52 29 66 24 10 -5 66 -28 124 -53 58 -24 122 -47 142 -51 49 -9 181 18
289 60 48 18 102 35 121 37 l33 3 3 -298 2 -299 -152 6 -153 5 -19 58 c-55
173 -224 278 -389 244 -140 -29 -218 -108 -251 -256 l-11 -50 -95 -7 c-117 -9
-185 -2 -228 23 -43 25 -69 24 -82 -2 -16 -28 -7 -58 30 -97 16 -18 30 -39 30
-46 0 -18 27 -40 87 -70 40 -20 67 -26 117 -26 78 0 108 12 161 62 l41 38 46
-39 c29 -23 74 -47 118 -61 91 -29 158 -24 265 20 70 30 81 32 109 21 51 -21
147 -40 201 -41 46 0 95 19 95 38 0 4 -43 7 -95 7 l-95 0 -42 43 c-69 68 -44
73 205 35 l107 -17 0 -177 c0 -198 4 -189 -76 -189 -104 0 -270 -83 -351 -176
l-49 -56 -57 11 c-153 28 -329 -63 -394 -205 l-23 -52 -83 -5 c-108 -7 -143
-19 -215 -72 -59 -43 -115 -120 -139 -190 l-10 -30 -254 -3 c-252 -2 -254 -2
-224 17 77 48 184 191 235 316 35 83 44 121 56 223 8 68 13 163 12 210 l-3 87
-80 21 c-80 21 -375 122 -600 206 -66 25 -174 71 -240 102 -66 32 -147 69
-180 83 -33 14 -87 39 -120 57 -33 17 -78 33 -100 36 l-40 5 -3 144 -3 144
108 -7 c178 -11 326 -34 487 -75 233 -60 366 -116 560 -236 49 -30 100 -55
113 -55 34 0 83 51 83 87 0 31 -22 70 -53 92 -22 16 -22 -40 3 536 10 238 1
600 -21 760 -25 190 -103 489 -163 625 -6 14 4 14 79 6 96 -10 120 -3 148 44
33 54 12 121 -41 135 -15 4 -311 7 -658 6 l-632 -1 -7 56 c-3 30 -3 120 1 200
l7 144 263 0 c167 0 265 4 269 10 4 6 -3 25 -14 43 -22 36 -89 77 -157 97 -26
8 -47 22 -55 37 -12 23 -11 27 26 59 22 18 70 54 106 80 69 48 96 82 86 108
-6 14 -54 16 -426 16 -384 0 -420 -1 -439 -17 -20 -17 -21 -30 -28 -427 l-7
-409 -151 7 c-83 3 -371 7 -640 7 l-490 1 -28 -31 c-35 -39 -37 -85 -5 -132
18 -27 30 -35 60 -37 20 -2 37 -6 37 -10 0 -4 11 -59 25 -123 73 -347 77 -976
10 -1563 -20 -169 -29 -202 -71 -241 -39 -37 -45 -84 -19 -135 23 -45 48 -46
108 -7 132 86 291 158 497 225 130 42 417 96 583 108 l87 7 0 -191 0 -191 -57
-21 c-32 -12 -87 -32 -123 -45 -36 -12 -102 -38 -147 -58 -156 -69 -637 -212
-856 -255 -128 -25 -140 -29 -149 -52 -6 -15 -8 -92 -5 -191 5 -152 8 -174 37
-260 48 -143 95 -223 179 -307 40 -40 71 -74 70 -75 -2 -1 -106 -1 -231 1
-178 2 -228 6 -228 16 0 31 -65 138 -109 179 -78 73 -120 90 -236 95 l-100 4
-24 55 c-29 65 -100 147 -150 173 -69 35 -150 45 -242 31 -61 -9 -84 -10 -87
-2 -2 7 -21 33 -42 60 -69 88 -233 169 -358 178 l-75 6 7 105 c3 58 6 158 6
224 0 108 1 118 19 118 10 0 30 -9 44 -20 78 -62 239 -134 356 -161 59 -13
131 8 242 72 115 65 133 68 195 31 152 -93 303 -94 452 -2 93 57 107 126 43
213 -47 64 -103 115 -147 133 -19 8 -67 14 -107 14 l-74 0 -7 46 c-25 188
-245 321 -444 270 -164 -42 -285 -201 -270 -354 4 -45 -4 -51 -36 -27 -36 27
-114 19 -195 -20 -40 -19 -73 -35 -74 -35 -1 0 -2 405 -2 900 l0 900 490 -2
490 -3 70 28 c221 89 391 273 451 492 14 52 16 121 14 523 l-1 464 43 -8 c24
-4 755 -7 1626 -7z m2525 -12 c209 -44 411 -222 476 -420 32 -99 40 -206 41
-575 l1 -325 -453 0 c-450 0 -453 0 -517 23 -145 54 -233 130 -295 257 -54
111 -56 133 -56 612 l0 443 368 0 c281 0 383 -4 435 -15z m-2295 -470 l-3 -95
-50 0 c-27 0 -107 -3 -177 -7 l-128 -6 0 96 0 97 44 0 c29 0 44 -4 43 -12 -2
-57 5 -118 12 -114 14 9 41 -5 41 -20 0 -20 27 -29 44 -15 10 8 16 9 21 1 3
-5 12 -10 19 -10 15 0 27 68 14 76 -10 6 -11 88 -1 97 3 4 33 7 65 7 l58 0 -2
-95z m-247 10 c-5 -29 -6 -29 -11 10 -7 48 1 83 10 45 3 -14 4 -38 1 -55z
m-27 -292 c4 -21 5 -109 4 -195 l-3 -158 -42 0 -43 0 0 195 0 195 39 0 c38 0
40 -2 45 -37z m-447 -616 c111 -240 138 -401 138 -827 0 -337 -17 -515 -49
-508 -6 2 -34 -13 -61 -33 -63 -46 -134 -82 -236 -120 l-81 -29 6 27 c28 131
46 367 46 579 0 391 -59 747 -165 996 -6 16 6 18 157 21 89 1 170 3 178 5 10
1 32 -35 67 -111z m527 13 c102 -218 145 -442 153 -793 5 -190 -5 -475 -15
-418 -2 13 -12 26 -23 28 -10 3 -19 10 -19 15 0 5 -5 6 -11 3 -6 -4 -8 -13 -5
-21 4 -10 -8 -17 -38 -25 -25 -6 -43 -16 -43 -25 0 -8 4 -14 9 -14 4 0 8 -11
8 -25 0 -19 -5 -25 -21 -25 -12 0 -19 5 -16 13 2 6 10 11 16 10 14 -4 15 14 1
22 -6 4 -19 -4 -29 -17 -17 -21 -18 -25 -4 -40 8 -9 13 -25 10 -35 -4 -15 -5
-14 -6 4 -2 35 -51 39 -51 4 1 -13 2 -13 11 3 9 15 13 16 20 5 12 -19 11 -32
-1 -24 -5 3 -10 1 -10 -5 0 -6 -4 -8 -10 -5 -5 3 -10 1 -10 -4 0 -6 -7 -11
-15 -11 -8 0 -15 -4 -15 -10 0 -5 -10 -10 -22 -10 -43 0 -69 -12 -63 -28 4
-11 2 -12 -8 -4 -24 20 -55 2 -72 -42 -8 -22 -13 -30 -11 -16 42 233 54 815
23 1040 -24 171 -58 306 -106 425 -23 54 -41 104 -41 110 0 6 63 10 185 10
l184 0 45 -95z m-1053 -4 c98 -216 136 -403 164 -806 13 -188 -30 -601 -66
-634 -9 -8 -10 -8 -5 2 11 19 -2 14 -27 -9 -12 -11 -48 -34 -80 -50 -32 -16
-55 -34 -52 -38 3 -5 -3 -7 -13 -4 -11 2 -26 -2 -34 -11 -9 -8 -18 -13 -20
-11 -7 7 -112 -36 -120 -48 -11 -18 -10 -29 3 -21 8 4 7 0 -1 -15 -6 -12 -15
-19 -20 -16 -10 6 -9 17 12 280 17 213 17 856 0 1040 -15 160 -50 382 -63 407
-8 15 -1 18 63 21 40 2 106 3 146 3 l73 -1 40 -89z m1573 -12 c100 -197 162
-444 172 -689 11 -280 10 -336 -1 -331 -7 2 -18 1 -25 -4 -10 -6 -8 -11 9 -21
11 -8 21 -18 21 -23 0 -4 -6 -3 -14 3 -11 9 -13 6 -13 -14 0 -18 4 -25 13 -21
10 4 14 -2 14 -19 0 -28 -20 -35 -21 -7 0 13 -2 14 -6 2 -4 -8 -15 -21 -26
-29 -15 -10 -16 -15 -6 -22 8 -4 18 -1 26 9 13 15 13 15 4 -4 -8 -16 -17 -20
-37 -16 -18 3 -30 0 -36 -12 -5 -9 -18 -16 -28 -16 -16 0 -19 -6 -16 -30 3
-25 1 -28 -11 -19 -11 10 -11 14 -1 20 8 5 5 8 -9 6 -12 0 -20 -4 -18 -7 4 -7
-30 -44 -59 -64 -10 -7 -18 -24 -18 -40 0 -15 -3 -24 -6 -22 -3 3 -10 2 -16
-2 -14 -11 -137 -55 -141 -50 -1 1 1 28 6 58 5 30 12 199 15 375 6 307 5 329
-20 528 -29 225 -54 325 -114 466 l-39 90 111 4 c61 2 140 3 175 3 l63 -1 52
-101z m343 93 l153 -2 15 -39 c18 -43 12 -63 -6 -23 -11 25 -23 30 -91 42 -33
6 -34 2 -9 -34 37 -52 89 -166 110 -242 15 -54 22 -110 23 -185 1 -63 6 -112
12 -116 7 -5 7 -8 1 -8 -5 0 -10 -17 -9 -38 0 -24 4 -36 13 -34 7 1 10 -2 6
-8 -3 -6 -12 -7 -18 -3 -8 5 -8 2 0 -9 7 -8 9 -18 5 -22 -4 -4 -8 -12 -8 -17
-1 -5 -3 -11 -4 -14 -1 -3 -3 -8 -5 -12 -1 -5 -4 -15 -8 -23 -3 -8 -12 -50
-21 -92 -8 -42 -22 -93 -31 -112 -16 -34 -117 -136 -135 -136 -4 0 -10 73 -14
163 -19 458 -54 622 -203 966 -5 10 2 12 33 7 21 -4 108 -8 191 -9z m176
-1279 c3 -10 7 -10 20 1 10 7 17 10 17 5 0 -17 -66 -53 -158 -88 l-93 -34 7
56 c3 31 8 59 10 61 4 5 8 -56 4 -78 -1 -13 1 -13 14 -2 10 9 16 10 16 2 0
-12 99 22 138 47 17 11 20 18 11 28 -7 9 -8 14 -1 14 6 0 12 -6 15 -12z
m-1002 -41 c-10 -9 -11 -8 -5 6 3 10 9 15 12 12 3 -3 0 -11 -7 -18z m624 3
c-3 -5 -10 -10 -16 -10 -5 0 -9 5 -9 10 0 6 7 10 16 10 8 0 12 -4 9 -10z m-53
-14 c17 -12 17 -14 -1 -30 -16 -15 -20 -15 -31 -1 -12 15 -8 45 7 45 4 0 16
-7 25 -14z m-548 -31 c-4 -8 -11 -12 -16 -9 -6 4 -5 10 3 15 19 12 19 11 13
-6z m476 -16 c0 -5 -5 -7 -12 -3 -8 5 -9 0 -6 -14 4 -12 2 -25 -3 -28 -5 -3
-9 -2 -8 3 1 4 0 10 -1 13 -10 26 -6 40 11 40 10 0 19 -5 19 -11z m-66 -45
c-18 -14 -18 -15 6 -8 28 7 26 2 -7 -15 -21 -11 -23 -9 -23 13 0 15 7 26 18
28 25 6 28 0 6 -18z m-444 2 c0 -2 -7 -7 -16 -10 -8 -3 -12 -2 -9 4 6 10 25
14 25 6z m-1110 -211 c14 -19 14 -19 -2 -6 -10 7 -18 18 -18 24 0 6 1 8 3 6 1
-2 9 -13 17 -24z m308 -26 c-21 -14 -48 -11 -42 5 3 8 15 11 30 8 19 -3 22 -7
12 -13z m-1681 -24 c95 -40 154 -119 155 -208 0 -30 -6 -66 -16 -84 -40 -79
-5 -94 84 -38 92 59 159 46 288 -59 61 -50 62 -51 42 -68 -39 -32 -150 -62
-230 -62 -90 1 -128 16 -197 78 -28 26 -61 46 -73 46 -12 0 -37 -13 -56 -29
-48 -43 -190 -110 -257 -122 -46 -8 -70 -7 -119 6 -68 17 -163 67 -218 113
-34 29 -35 30 -17 50 28 31 73 34 165 12 46 -11 90 -20 97 -20 12 0 13 19 8
109 -5 98 -4 113 16 153 26 55 51 79 116 112 59 30 154 35 212 11z m1308 -55
c3 -5 1 -10 -4 -10 -6 0 -11 5 -11 10 0 6 2 10 4 10 3 0 8 -4 11 -10z m-166
-40 c-18 -12 -4 -38 23 -42 21 -4 20 -6 -12 -21 -41 -18 -47 -10 -36 49 5 24
11 32 22 27 12 -4 13 -8 3 -13z m156 2 c-3 -3 -11 0 -18 7 -9 10 -8 11 6 5 10
-3 15 -9 12 -12z m1045 -8 c6 -14 10 -82 10 -150 0 -91 3 -123 11 -118 8 5 10
32 7 83 -3 42 -2 105 2 141 5 51 7 34 8 -86 l2 -151 -39 -11 c-21 -7 -41 -12
-45 -12 -3 0 -6 74 -6 165 0 159 1 165 20 165 13 0 24 -10 30 -26z m2541 -166
c46 -13 113 -68 134 -109 24 -45 19 -90 -15 -136 -57 -78 -205 -106 -308 -58
-29 13 -55 32 -58 42 -3 10 -12 32 -20 50 -18 40 -18 55 2 101 19 46 60 90 99
108 37 17 115 18 166 2z m-2286 -340 c4 -57 5 -325 3 -595 l-3 -493 -41 0 -41
0 -12 380 c-9 250 -10 442 -5 563 5 100 8 197 6 215 -3 32 -2 32 42 32 l44 0
7 -102z m1871 60 c14 -13 12 -17 -13 -34 -17 -11 -52 -20 -89 -22 -51 -3 -72
1 -123 23 -99 45 -84 56 74 52 105 -3 139 -7 151 -19z m-2096 -28 c0 -45 -11
-54 -80 -65 -25 -3 -97 -19 -160 -35 -116 -29 -279 -60 -314 -60 -16 0 -13 5
14 25 31 23 196 80 430 149 113 33 110 33 110 -14z m452 -68 c-19 -6 -44 6
-37 18 4 7 14 6 28 -2 14 -7 17 -13 9 -16z m-459 -199 c-3 -43 -9 -82 -13 -86
-4 -4 -92 -19 -196 -32 -172 -23 -379 -52 -864 -121 -96 -13 -204 -31 -240
-38 -36 -8 -68 -12 -72 -9 -5 2 -8 37 -8 77 l0 72 48 12 c91 22 418 91 577
121 110 21 221 34 355 41 107 6 231 17 275 24 44 7 94 14 112 15 l31 1 -5 -77z
m-2927 -259 c32 -16 81 -51 109 -79 41 -40 53 -60 63 -103 17 -77 16 -79 -26
-36 -84 87 -219 152 -319 153 -33 1 -33 1 -33 52 l0 52 74 -5 c56 -4 89 -12
132 -34z m2924 -69 c0 -76 -4 -107 -12 -110 -7 -2 -119 -11 -248 -20 -129 -8
-305 -22 -390 -30 -85 -8 -261 -24 -390 -35 -129 -12 -243 -23 -252 -26 -13
-4 -25 10 -48 56 -17 34 -29 65 -26 68 10 9 383 71 561 93 94 11 224 29 290
39 66 11 197 29 290 41 94 11 172 23 174 25 2 2 15 4 28 4 23 0 23 -2 23 -105z
m3098 58 l3 -42 -53 -16 c-114 -33 -235 -92 -285 -138 -13 -11 -25 -18 -28
-15 -12 12 18 97 45 130 51 62 211 131 290 125 22 -2 25 -7 28 -44z m-2478
-38 c0 -2 -9 -9 -20 -15 -16 -9 -18 -8 -14 5 5 13 34 22 34 10z m30 1 c0 -3
-4 -8 -10 -11 -5 -3 -10 -1 -10 4 0 6 5 11 10 11 6 0 10 -2 10 -4z m40 -18 c0
-5 -5 -6 -12 -2 -8 5 -9 2 -5 -10 4 -9 3 -15 -2 -11 -15 9 -9 44 6 38 7 -3 13
-9 13 -15z m70 -14 c0 -11 -5 -10 -20 3 -11 10 -20 18 -20 19 0 1 9 0 20 -3
11 -3 20 -12 20 -19z m35 6 c3 -5 2 -10 -4 -10 -5 0 -13 5 -16 10 -3 6 -2 10
4 10 5 0 13 -4 16 -10z m-3266 -134 c9 -11 5 -15 -24 -20 -41 -8 -87 10 -64
25 22 13 75 11 88 -5z m4991 4 c0 -14 -104 -90 -123 -90 -10 0 -17 -4 -17 -8
0 -5 -7 -9 -15 -9 -8 0 -15 4 -15 9 0 4 -5 8 -11 8 -5 0 -8 -4 -5 -9 3 -5 0
-11 -8 -14 -10 -4 -12 0 -9 14 7 26 72 80 114 95 42 15 89 17 89 4z m-2520
-215 l0 -105 -77 0 c-43 0 -163 -2 -268 -5 -104 -3 -287 -7 -405 -10 -118 -2
-242 -8 -276 -11 l-60 -6 -77 68 c-71 63 -75 70 -55 76 13 4 151 16 308 28
157 12 377 30 490 40 185 18 237 22 378 28 l42 2 0 -105z m-1669 -345 c5 -8 8
-37 7 -64 -3 -44 -6 -50 -28 -52 -23 -3 -352 -14 -502 -18 -36 0 -70 -4 -74
-8 -4 -5 -30 -7 -58 -7 -44 1 -47 2 -21 9 l30 8 -32 1 c-20 1 -33 -4 -33 -11
0 -9 -3 -9 -12 0 -14 14 -65 16 -70 2 -1 -5 -33 -12 -70 -15 -59 -5 -68 -3
-68 11 0 14 -7 16 -46 10 -26 -3 -68 -6 -93 -6 -33 0 -42 -3 -31 -10 12 -8 11
-10 -7 -10 -15 0 -23 6 -24 18 -1 16 -2 16 -6 0 -2 -10 -9 -18 -14 -18 -5 0
-10 8 -10 18 -1 16 -2 16 -6 0 -2 -10 -9 -18 -14 -18 -6 0 -7 5 -4 10 7 11 6
11 -42 15 -18 1 -33 -2 -33 -7 0 -5 -7 -2 -16 6 -11 12 -20 13 -34 6 -23 -12
-43 -13 -36 -2 3 5 -2 9 -10 9 -8 0 -13 -6 -10 -14 3 -7 -1 -13 -9 -13 -8 0
-12 6 -9 14 4 10 -1 14 -15 13 -12 -1 -21 -5 -21 -10 0 -4 -4 -5 -10 -2 -5 3
-7 0 -4 -8 3 -8 1 -18 -4 -21 -9 -5 -24 160 -16 174 1 3 327 6 724 5 620 -1
723 -3 731 -15z m1598 -75 l-1 -95 -172 1 c-94 0 -191 4 -216 8 -25 5 -36 9
-26 10 11 0 17 3 15 6 -3 2 -95 7 -205 11 -109 3 -196 3 -192 -2 4 -4 58 -9
120 -11 62 -3 115 -7 117 -9 2 -2 -178 -4 -400 -3 -235 0 -396 4 -384 9 18 8
18 9 -5 9 -20 1 -22 3 -10 11 11 7 6 10 -21 10 -29 0 -37 -5 -47 -27 -11 -27
-11 -26 -7 12 3 22 5 64 5 92 l0 53 438 3 c240 1 562 3 715 5 l278 2 -2 -95z
m1049 80 l552 2 -1 -61 c0 -68 -7 -89 -29 -95 -8 -2 -31 -7 -50 -12 -51 -12
-537 -11 -561 1 -10 6 -36 13 -56 15 -91 10 -129 16 -142 20 -7 3 -20 0 -27
-6 -9 -7 -34 -10 -62 -7 -26 2 -63 2 -82 -2 -29 -5 -21 -8 45 -14 44 -4 85 -9
90 -11 6 -3 -122 -3 -282 -2 l-293 1 0 87 c0 47 2 88 4 90 2 2 80 1 173 -2 92
-3 417 -5 721 -4z m1870 -1 l242 -7 0 -43 c0 -24 -4 -46 -10 -49 -5 -3 -10 -1
-10 6 0 7 -3 9 -7 6 -3 -4 -12 -2 -19 4 -18 15 -133 13 -151 -3 -11 -9 -16 -9
-23 1 -6 10 -13 10 -34 -4 -16 -11 -37 -15 -54 -12 -15 3 -49 0 -77 -8 -41
-10 -46 -13 -25 -17 22 -5 21 -6 -7 -8 -63 -5 -114 -8 -215 -11 -82 -3 -62 -5
92 -9 140 -4 70 -6 -250 -7 -245 -1 -440 0 -435 2 6 2 32 6 58 10 27 4 47 9
44 11 -4 4 -69 10 -172 16 -47 3 -95 -3 -95 -11 0 -5 28 -7 63 -6 l62 4 -60
-11 c-33 -6 -63 -16 -67 -22 -13 -19 -19 19 -16 95 l3 74 215 6 c238 6 578 4
948 -7z m-4911 -140 c-3 -3 -12 -4 -19 -1 -8 3 -5 6 6 6 11 1 17 -2 13 -5z
m-892 -14 c3 -5 -3 -10 -15 -10 -12 0 -18 5 -15 10 3 6 10 10 15 10 5 0 12 -4
15 -10z m1128 -2 c-2 -5 -57 -7 -121 -6 l-117 2 90 6 c118 7 154 7 148 -2z
m172 -211 c-1 -20 -2 -368 -3 -772 l-2 -736 -482 6 c-541 7 -555 9 -678 84
-121 73 -203 173 -262 318 -37 88 -35 56 -40 790 l-3 343 720 3 c396 1 727 2
735 2 11 0 15 -11 15 -38z m1585 -731 l0 -774 -687 4 c-379 3 -703 4 -720 4
l-33 0 0 765 0 765 708 3 c389 1 713 3 719 5 10 1 13 -167 13 -772z m1609 72
c-1 -381 -3 -727 -4 -768 l-2 -75 -644 -3 c-354 -2 -681 0 -726 3 l-83 7 0
766 0 767 730 -2 731 -2 -2 -693z m1563 430 c-1 -150 -3 -392 -5 -538 l-2
-265 -31 -72 c-40 -91 -109 -188 -174 -245 -57 -50 -177 -120 -236 -138 -27
-8 -180 -13 -501 -15 l-463 -3 3 769 2 769 675 3 c371 1 689 3 705 5 l30 2 -3
-272z m-3929 -1528 c3 -11 1 -18 -4 -14 -5 3 -9 12 -9 20 0 20 7 17 13 -6z
m1657 10 c0 -5 -2 -10 -4 -10 -3 0 -8 5 -11 10 -3 6 -1 10 4 10 6 0 11 -4 11
-10z m-2156 -18 c3 -5 -1 -9 -9 -9 -8 0 -15 4 -15 9 0 4 4 8 9 8 6 0 12 -4 15
-8z m826 -7 c5 3 11 1 14 -4 4 -5 -2 -8 -11 -7 -9 2 -18 8 -19 15 -1 6 0 7 3
1 2 -5 9 -8 13 -5z m1204 -17 c-4 -6 -10 -5 -15 3 -14 22 -10 33 6 19 8 -7 12
-17 9 -22z"/>
<path d="M2654 8449 c-12 -21 -117 -81 -178 -103 l-61 -22 0 -134 0 -135 -55
-30 c-30 -16 -89 -41 -130 -56 l-75 -27 -3 -153 c-1 -87 2 -157 7 -162 5 -5
33 -19 63 -31 29 -12 85 -38 125 -57 l72 -34 1 -90 c0 -122 4 -133 49 -140 20
-4 72 -18 117 -32 l80 -26 99 33 c54 18 115 33 134 34 l36 1 3 101 3 102 87
50 c48 27 111 58 140 68 l52 19 -2 164 -3 164 -95 31 c-52 18 -114 42 -138 55
l-44 22 4 129 3 128 -80 31 c-45 17 -105 49 -135 71 -58 43 -65 46 -76 29z
m96 -146 c44 -21 80 -44 80 -50 0 -7 -35 -30 -77 -50 l-78 -38 1 -87 c1 -103
2 -103 -96 -57 l-66 30 3 112 3 112 42 8 c24 5 57 19 73 32 17 13 31 24 33 25
2 0 39 -17 82 -37z m-266 -368 c27 -13 64 -27 82 -31 19 -3 34 -12 34 -19 0
-7 -38 -35 -85 -61 l-84 -49 3 -77 c1 -43 1 -80 -1 -82 -3 -2 -34 9 -70 25
-36 16 -73 29 -83 29 -11 0 -21 4 -24 9 -3 5 -3 51 1 103 l6 94 41 13 c23 7
59 25 81 41 22 16 42 29 45 30 3 0 27 -11 54 -25z m530 -19 c111 -50 111 -47
-8 -106 l-71 -36 3 -81 c2 -63 -1 -82 -12 -86 -8 -3 -20 1 -26 8 -7 8 -43 25
-82 37 l-70 23 4 109 3 109 52 18 c29 10 63 25 75 33 12 9 25 16 29 16 3 0 49
-20 103 -44z m-414 -190 c0 -32 -23 -56 -38 -41 -6 5 27 75 35 75 1 0 3 -15 3
-34z m118 -146 c20 -11 58 -28 85 -39 26 -11 47 -24 47 -30 0 -11 -147 -91
-168 -91 -7 0 -40 14 -73 31 -85 42 -84 31 1 -17 69 -39 70 -39 70 -81 0 -23
-3 -44 -8 -47 -4 -2 -32 6 -62 20 -30 13 -63 23 -73 24 -16 0 -18 8 -16 73 1
39 -1 79 -5 87 -5 12 4 19 40 28 25 7 62 24 82 37 20 14 38 25 40 25 2 0 20
-9 40 -20z"/>
<path d="M2544 8211 c10 -15 107 -64 114 -57 7 8 5 10 -53 37 -27 13 -54 25
-59 27 -5 3 -6 -1 -2 -7z"/>
<path d="M2305 7820 c17 -11 35 -20 40 -20 6 0 -5 9 -23 20 -42 26 -56 26 -17
0z"/>
<path d="M2370 7790 c8 -5 24 -10 34 -10 26 0 18 6 -19 14 -22 5 -26 4 -15 -4z"/>
<path d="M2800 7830 c30 -25 111 -63 118 -55 7 7 6 8 -73 43 -53 25 -64 27
-45 12z"/>
<path d="M6054 7996 c-3 -8 -4 -29 -2 -48 l3 -33 63 -3 62 -3 0 44 c0 51 -8
57 -76 57 -29 0 -47 -5 -50 -14z"/>
<path d="M6233 8003 c-7 -2 -13 -22 -13 -43 0 -45 9 -50 86 -50 l54 0 0 50 0
50 -57 -1 c-32 0 -64 -3 -70 -6z"/>
<path d="M3840 7935 l0 -45 59 0 c63 0 70 7 71 68 0 21 -4 22 -65 22 l-65 0 0
-45z"/>
<path d="M4000 7961 c0 -11 4 -31 10 -45 8 -23 15 -26 60 -26 45 0 50 2 50 23
0 12 3 32 6 45 6 21 4 22 -60 22 -59 0 -66 -2 -66 -19z"/>
<path d="M4228 7973 c-23 -4 -28 -9 -28 -33 0 -42 24 -60 80 -60 48 0 48 0 53
38 7 59 -12 69 -105 55z"/>
<path d="M2836 6848 c-8 -13 -21 -58 -28 -101 l-13 -79 -56 -34 c-38 -24 -82
-40 -137 -51 l-82 -16 0 -33 c0 -35 11 -41 111 -58 45 -8 152 -89 172 -131 8
-16 18 -52 22 -79 9 -68 14 -76 41 -76 29 0 38 17 53 100 10 52 20 73 49 104
37 38 141 96 174 96 27 0 50 29 42 54 -9 29 -17 33 -88 41 -115 13 -159 59
-176 185 -6 47 -14 88 -16 92 -11 17 -54 7 -68 -14z m76 -255 c21 -20 38 -45
38 -56 0 -46 -48 -96 -91 -97 -31 0 -89 59 -89 89 0 17 83 101 98 101 4 0 23
-17 44 -37z"/>
<path d="M7477 6784 c-4 -4 -7 -36 -7 -71 0 -62 0 -63 -41 -92 -22 -17 -60
-38 -85 -47 -37 -14 -44 -21 -44 -44 0 -23 7 -30 45 -45 75 -28 108 -70 129
-167 5 -21 12 -28 31 -28 24 0 28 6 40 67 8 41 40 74 109 113 35 20 57 39 58
51 0 10 1 24 2 30 1 6 -30 24 -69 40 -98 42 -104 49 -107 128 -3 62 -4 66 -28
69 -14 2 -29 0 -33 -4z"/>
<path d="M7480 8380 c-14 -10 -113 -60 -220 -110 l-195 -92 0 -289 0 -289 40
-16 c22 -9 94 -46 160 -84 66 -37 153 -84 193 -104 l72 -36 98 51 c53 28 140
75 192 104 52 29 112 58 133 65 l37 12 0 293 0 294 -22 6 c-47 15 -321 146
-374 180 -62 40 -79 42 -114 15z m101 -139 c30 -16 89 -43 132 -61 42 -18 77
-35 77 -40 0 -4 -44 -27 -97 -50 -54 -23 -112 -51 -130 -62 l-31 -19 -137 67
c-75 36 -133 69 -129 74 5 4 60 29 122 55 62 27 115 52 118 57 8 13 16 10 75
-21z m-256 -254 l140 -72 3 -199 2 -198 -77 43 c-43 24 -107 58 -143 77 l-65
33 -6 72 c-4 55 0 317 5 317 1 0 64 -33 141 -73z"/>
<path d="M7979 7469 c-15 -29 5 -51 24 -25 11 16 15 16 25 3 10 -12 7 -24 -19
-65 -43 -69 -37 -87 26 -87 43 0 50 3 50 20 0 16 -6 19 -25 17 l-25 -4 28 30
c15 16 30 45 33 64 5 29 2 38 -17 52 -34 23 -86 21 -100 -5z"/>
<path d="M7867 7474 c-19 -19 -6 -60 24 -76 36 -21 30 -38 -12 -38 -28 0 -30
-2 -27 -32 3 -31 6 -33 46 -36 38 -3 43 -1 53 25 8 21 8 36 -1 58 -7 17 -15
46 -19 65 -5 28 -11 36 -31 38 -14 2 -29 0 -33 -4z"/>
<path d="M5310 6010 c-8 -5 -12 -11 -9 -14 2 -3 11 -1 19 4 8 5 12 11 9 14 -2
3 -11 1 -19 -4z"/>
<path d="M5826 6023 c-6 -14 -5 -15 5 -6 7 7 10 15 7 18 -3 3 -9 -2 -12 -12z"/>
<path d="M5750 5949 c0 -5 5 -7 10 -4 6 3 10 8 10 11 0 2 -4 4 -10 4 -5 0 -10
-5 -10 -11z"/>
<path d="M5770 5897 c0 -19 16 -31 24 -18 3 5 -1 14 -9 21 -12 10 -15 10 -15
-3z"/>
<path d="M4091 3554 c0 -11 3 -14 6 -6 3 7 2 16 -1 19 -3 4 -6 -2 -5 -13z"/>
<path d="M5000 3561 c0 -6 -21 -12 -47 -14 l-48 -3 53 -2 c40 -2 52 1 52 13 0
8 -2 15 -5 15 -3 0 -5 -4 -5 -9z"/>
<path d="M7103 3553 c15 -2 37 -2 50 0 12 2 0 4 -28 4 -27 0 -38 -2 -22 -4z"/>
<path d="M7248 3553 c7 -3 16 -2 19 1 4 3 -2 6 -13 5 -11 0 -14 -3 -6 -6z"/>
<path d="M7288 3553 c6 -2 18 -2 25 0 6 3 1 5 -13 5 -14 0 -19 -2 -12 -5z"/>
<path d="M7408 3543 c6 -2 18 -2 25 0 6 3 1 5 -13 5 -14 0 -19 -2 -12 -5z"/>
<path d="M3198 3253 c-24 -6 -54 -108 -42 -142 13 -37 57 -55 108 -45 37 8 41
12 44 42 2 19 0 41 -5 50 -4 10 -8 35 -8 57 0 40 0 40 -40 42 -22 0 -48 -1
-57 -4z m46 -49 c6 -15 -17 -43 -36 -44 -12 0 -9 35 4 48 16 16 25 15 32 -4z
m9 -78 c7 -17 -11 -36 -35 -36 -21 0 -22 4 -8 31 12 22 36 25 43 5z"/>
<path d="M2588 3173 l-3 -48 -110 -7 c-60 -4 -120 -10 -132 -13 -33 -8 -44
-56 -37 -161 6 -86 6 -92 -14 -103 -11 -6 -35 -11 -52 -11 -33 0 -70 -15 -82
-34 -4 -6 -8 -77 -8 -159 l0 -147 26 -10 c14 -6 41 -10 59 -10 40 0 41 -1 50
-129 3 -46 12 -99 20 -118 l15 -35 127 3 128 4 7 -135 c7 -131 19 -180 43
-180 30 0 39 33 43 161 4 126 5 129 27 129 28 0 35 -29 35 -152 0 -98 -1 -98
71 -101 l44 -2 0 135 0 135 80 8 c165 16 165 16 176 45 7 17 8 66 4 130 l-7
102 64 0 c105 0 108 4 108 169 0 175 -5 184 -107 191 l-68 5 0 106 c0 115 -13
156 -49 164 -21 4 -331 25 -374 25 -19 0 -22 5 -22 45 0 43 -1 45 -29 45 -28
0 -30 -2 -33 -47z m401 -236 l-1 -84 -180 -6 c-100 -4 -232 -7 -295 -7 l-113
0 0 83 c0 46 3 87 7 90 3 4 136 7 294 7 l288 0 0 -83z m-530 -193 c20 -4 31
-12 31 -23 0 -30 -23 -41 -81 -41 -38 0 -61 -5 -69 -15 -7 -8 -24 -16 -39 -16
-20 -1 -22 -2 -6 -6 11 -3 32 -16 47 -30 25 -24 31 -25 90 -19 92 11 108 24
108 91 0 49 3 55 23 60 12 2 150 1 307 -3 l285 -7 1 -78 c0 -49 -4 -80 -10
-82 -6 -2 -210 -6 -454 -9 -350 -5 -443 -3 -446 6 -3 7 -7 48 -11 90 l-6 77
43 4 c78 7 155 7 187 1z m289 -282 l252 -2 0 -31 0 -32 -187 4 -188 4 -3 -38
c-4 -44 -3 -45 103 -52 241 -17 232 -20 -57 -22 l-298 -2 0 87 0 87 63 0 c34
0 176 -2 315 -3z"/>
<path d="M2595 2940 c-9 -30 3 -59 29 -66 12 -3 49 -4 81 -2 l60 3 3 43 3 42
-85 0 c-76 0 -85 -2 -91 -20z"/>
<path d="M2853 2679 c-7 -7 -13 -23 -13 -36 0 -32 30 -41 113 -35 55 3 70 8
78 25 7 11 14 15 18 9 3 -5 22 -13 42 -17 29 -5 38 -3 43 11 9 24 -11 35 -65
32 -25 -1 -49 1 -55 4 -5 3 -40 9 -79 13 -51 4 -73 3 -82 -6z"/>
<path d="M2447 2393 c-4 -3 -7 -24 -7 -45 l0 -38 54 0 c52 0 85 17 68 35 -4 5
1 5 10 2 10 -3 20 -2 23 3 4 6 -1 10 -9 10 -8 0 -20 9 -26 20 -8 16 -21 20
-59 20 -26 0 -51 -3 -54 -7z"/>
<path d="M3075 2153 c-32 -8 -45 -23 -45 -53 0 -31 12 -43 55 -57 17 -5 31
-17 33 -25 4 -20 -36 -34 -51 -19 -16 16 -67 14 -67 -2 0 -17 63 -47 100 -47
55 0 83 83 38 114 -12 9 -30 16 -40 16 -10 0 -18 7 -18 15 0 10 11 15 35 15
36 0 46 15 23 38 -12 12 -28 13 -63 5z"/>
<path d="M3222 2147 c-6 -6 -14 -25 -18 -41 -7 -29 -7 -29 17 -13 51 36 54 6
4 -49 -19 -21 -35 -48 -35 -61 0 -23 3 -24 58 -21 50 3 57 6 60 26 3 17 -1 22
-19 22 l-22 0 20 23 c11 12 23 34 27 50 12 49 -62 100 -92 64z"/>
<path d="M4305 3200 c-16 -17 -17 -31 -11 -107 3 -48 10 -90 15 -93 4 -3 13
-15 20 -28 7 -12 16 -20 20 -18 13 9 23 224 11 246 -14 25 -32 25 -55 0z"/>
<path d="M3765 3154 c-40 -43 -33 -62 55 -142 102 -94 368 -395 376 -427 6
-24 -14 -61 -60 -113 -20 -22 -25 -23 -103 -17 l-82 7 -115 -108 c-63 -60
-112 -112 -108 -116 4 -4 42 -11 85 -17 43 -5 81 -11 83 -14 3 -2 -26 -34 -64
-71 -87 -84 -102 -110 -79 -134 16 -15 19 -15 50 1 18 10 61 43 95 74 68 60
68 60 103 1 15 -27 35 -22 68 20 16 21 48 57 71 79 37 37 40 45 40 95 0 52 2
56 66 126 36 40 70 72 75 72 17 0 76 -49 114 -96 34 -41 35 -46 26 -81 -14
-51 6 -89 92 -168 l70 -65 18 29 c9 16 22 32 28 36 7 3 45 -25 87 -64 42 -39
82 -71 88 -71 7 0 23 11 36 25 l24 26 -77 77 c-42 43 -77 81 -77 84 0 4 18 12
40 18 22 5 58 15 81 21 22 5 39 13 37 18 -9 20 -224 211 -239 211 -9 0 -43
-10 -75 -22 l-57 -22 -31 39 c-17 21 -47 55 -68 76 l-36 36 60 59 c33 33 88
95 123 139 63 80 131 149 258 258 37 32 67 63 67 69 0 20 -42 68 -59 68 -10 0
-89 -68 -177 -151 -140 -132 -260 -229 -284 -229 -5 0 -14 16 -20 36 -15 45
-31 39 -47 -16 -7 -25 -20 -51 -29 -60 -14 -13 -19 -11 -54 27 -22 22 -79 74
-127 115 -48 40 -135 121 -193 180 -57 60 -111 108 -118 108 -7 0 -24 -12 -37
-26z m1009 -820 c25 -16 26 -18 10 -24 -11 -4 -40 -9 -67 -12 -37 -4 -53 -1
-72 14 -14 11 -25 26 -25 35 0 13 10 15 63 11 37 -3 75 -13 91 -24z m-799 -14
c18 -29 -52 -52 -100 -33 -14 5 -11 9 16 24 38 20 75 24 84 9z m115 -61 c0
-32 -37 -92 -52 -83 -15 9 -8 58 12 92 23 38 40 34 40 -9z m514 0 c29 -23 34
-50 11 -69 -22 -18 -44 -5 -61 35 -23 56 1 73 50 34z"/>
<path d="M6421 3241 c-17 -17 -21 -34 -21 -81 0 -33 -4 -60 -10 -60 -20 0 -10
-38 13 -44 29 -8 101 -8 121 0 20 7 22 75 4 107 -7 12 -13 38 -13 57 0 33 -2
35 -37 38 -27 2 -43 -3 -57 -17z m43 -37 c25 -9 19 -24 -9 -24 -24 0 -32 10
-18 23 8 8 8 8 27 1z m10 -80 c10 -27 7 -34 -18 -34 -29 0 -39 12 -30 34 8 21
40 21 48 0z"/>
<path d="M5810 3183 c-74 -12 -195 -66 -270 -120 -81 -59 -147 -154 -187 -270
-51 -148 -33 -333 46 -468 93 -160 267 -266 465 -281 87 -7 196 19 303 71 94
46 184 142 242 257 49 98 65 181 57 288 -9 98 -30 161 -81 240 -129 200 -369
318 -575 283z m201 -119 c130 -39 235 -124 297 -242 34 -63 55 -172 35 -172
-6 0 -12 -39 -15 -92 -3 -73 -9 -105 -30 -148 -36 -77 -105 -151 -144 -156
-26 -3 -93 -30 -154 -63 -8 -5 -15 -14 -15 -22 0 -25 -86 -33 -170 -16 -111
23 -177 57 -254 132 -147 142 -182 346 -93 535 90 190 342 304 543 244z"/>
<path d="M5789 3006 c-47 -13 -142 -62 -195 -101 -18 -14 -49 -59 -75 -111
-42 -83 -44 -90 -43 -173 0 -159 49 -260 162 -335 171 -113 342 -114 505 -2
49 34 68 55 98 111 21 38 48 105 60 149 20 77 20 83 5 139 -25 89 -80 191
-123 226 -109 91 -270 131 -394 97z m59 -159 c2 -75 0 -87 -16 -96 -16 -8 -28
0 -77 49 -49 49 -56 61 -46 74 16 19 112 67 126 63 5 -2 11 -42 13 -90z m200
47 c23 -14 42 -29 42 -33 0 -14 -130 -124 -138 -117 -9 10 -16 152 -8 172 8
20 44 13 104 -22z m-346 -157 c59 -61 61 -77 11 -78 -57 -1 -158 2 -161 5 -1
2 4 16 13 32 8 16 21 46 29 66 12 31 18 36 37 31 13 -4 45 -29 71 -56z m491
28 c9 -20 21 -54 26 -76 l9 -41 -91 7 c-51 4 -96 11 -102 17 -7 6 12 30 55 69
36 32 70 59 76 59 6 0 18 -16 27 -35z m-257 -135 c13 -39 5 -63 -27 -80 -16
-9 -25 -6 -49 19 -17 16 -30 37 -30 47 0 30 31 55 64 52 25 -2 33 -9 42 -38z
m-186 -73 c0 -20 -129 -143 -138 -132 -8 9 -52 125 -52 136 0 2 43 5 95 7 72
2 95 -1 95 -11z m466 -28 c-8 -43 -37 -100 -53 -106 -15 -6 -122 103 -123 125
0 9 25 12 91 12 l92 0 -7 -31z m-374 -99 c5 -25 7 -65 6 -90 -3 -44 -4 -45
-33 -42 -35 5 -82 24 -110 47 -19 15 -17 17 40 75 33 33 67 59 75 58 9 -2 18
-21 22 -48z m194 -2 c34 -29 62 -57 60 -63 -2 -12 -100 -61 -138 -71 l-28 -6
0 84 c0 80 9 108 33 108 5 0 38 -24 73 -52z"/>
<path d="M6220 2335 c-7 -9 -10 -18 -7 -21 3 -3 10 4 17 15 13 25 8 27 -10 6z"/>
<path d="M6455 2150 c-11 -5 -45 -6 -76 -3 -46 4 -57 2 -62 -11 -6 -14 2 -16
56 -13 34 1 67 5 72 9 6 4 17 3 24 -2 19 -11 8 -49 -29 -95 -45 -56 -38 -69
38 -73 l62 -3 0 31 c0 26 -4 30 -27 30 l-28 1 28 20 c31 24 36 62 11 97 -16
23 -35 26 -69 12z"/>
<path d="M6335 2020 c-6 -18 -12 -20 -37 -15 -25 6 -29 4 -26 -11 2 -12 16
-21 42 -26 33 -7 41 -5 58 14 23 27 20 52 -9 56 -15 2 -23 -3 -28 -18z"/>
<path d="M7157 3263 c-2 -5 -21 -61 -41 -125 l-37 -118 -49 0 c-27 0 -51 -3
-53 -7 -11 -21 13 -198 32 -234 l21 -39 -25 0 c-21 0 -25 -5 -25 -27 1 -61 21
-168 36 -184 14 -15 13 -17 -11 -23 -18 -5 -25 -12 -21 -24 2 -9 7 -44 11 -77
4 -33 13 -75 21 -94 8 -18 14 -58 14 -88 0 -66 17 -101 70 -143 36 -28 40 -36
40 -75 0 -55 19 -67 93 -63 l52 3 3 56 c3 52 5 57 36 72 65 31 107 111 105
202 -1 28 6 90 15 138 9 48 14 92 11 97 -3 6 -17 10 -31 10 l-25 0 20 28 c20
27 47 174 35 193 -3 5 -14 9 -25 9 -23 0 -24 11 -4 49 14 28 36 218 27 234 -2
5 -25 6 -51 2 -60 -8 -65 -2 -91 111 -12 49 -23 97 -26 107 -4 14 -17 17 -64
17 -32 0 -61 -3 -63 -7z m88 -196 l18 -68 -23 -25 c-30 -31 -42 -30 -69 6
l-22 31 21 56 c11 30 26 65 32 76 13 25 18 16 43 -76z m106 -189 c-14 -40 -83
-130 -92 -120 -4 4 -10 23 -14 43 -6 35 -5 38 51 84 60 49 74 47 55 -7z m-163
-36 c13 -17 17 -122 4 -122 -13 0 -79 73 -96 107 -9 18 -16 46 -16 62 l0 30
48 -31 c26 -17 53 -38 60 -46z m-3 -224 c7 -7 17 -34 23 -60 12 -60 -1 -63
-59 -11 -40 36 -60 66 -73 110 l-7 23 52 -24 c28 -14 58 -31 64 -38z m175 50
c0 -23 -41 -95 -70 -123 l-30 -29 0 51 c0 47 3 54 37 82 39 32 63 39 63 19z
m-6 -216 c14 -23 -74 -150 -95 -136 -13 8 -10 67 4 84 14 18 69 59 79 60 4 0
9 -4 12 -8z m-211 -28 c29 -15 53 -27 54 -29 10 -7 19 -95 10 -95 -37 0 -127
94 -127 133 0 22 1 22 63 -9z m21 -209 c61 -31 69 -31 123 0 36 22 43 23 43 9
0 -18 -98 -114 -118 -114 -20 0 -102 88 -102 110 0 11 1 20 3 20 1 0 24 -11
51 -25z"/>
<path d="M7700 3178 c-12 -51 -24 -100 -26 -110 -3 -11 -21 -18 -56 -23 l-51
-7 6 -102 c3 -55 12 -118 18 -140 12 -34 11 -40 -5 -52 -17 -12 -18 -20 -7
-108 7 -53 9 -101 4 -108 -10 -17 -4 -123 9 -171 9 -28 8 -41 0 -49 -15 -15
-15 -80 -2 -130 13 -45 52 -93 91 -113 24 -13 29 -24 35 -65 7 -57 19 -64 95
-58 l44 3 -3 52 c-2 49 -1 53 27 67 33 17 74 63 98 110 11 20 19 75 25 161 4
72 9 139 11 150 1 12 -6 24 -20 30 -24 10 -31 25 -13 25 16 0 27 38 34 123 7
74 6 79 -14 84 -15 4 -19 11 -15 22 10 25 23 108 29 188 6 71 5 73 -18 79 -14
3 -33 3 -44 0 -11 -4 -24 0 -34 11 -16 19 -48 106 -48 132 0 9 -5 33 -11 54
l-10 37 -63 0 -64 0 -22 -92z m116 -99 l21 -79 -22 -20 c-28 -26 -41 -25 -62
6 -15 23 -15 33 -4 87 14 67 29 102 39 92 4 -3 16 -42 28 -86z m-92 -202 c43
-41 46 -46 46 -95 0 -37 -4 -52 -13 -52 -17 0 -50 36 -69 75 -19 37 -32 115
-20 115 5 0 30 -19 56 -43z m206 26 c-1 -29 -36 -95 -72 -135 -19 -21 -36 -38
-39 -38 -4 0 -4 24 -2 53 4 47 9 56 51 94 52 47 62 51 62 26z m-169 -285 c5
-9 12 -38 16 -64 l6 -46 -41 27 c-43 28 -72 76 -72 120 l0 26 41 -23 c22 -12
45 -30 50 -40z m159 48 c0 -29 -21 -70 -55 -108 -27 -30 -35 -34 -35 -19 0 10
-3 32 -6 49 -6 27 -2 34 36 61 48 34 60 38 60 17z m-197 -236 c41 -26 47 -34
47 -64 0 -19 3 -41 6 -50 19 -49 -81 30 -102 81 -16 36 -18 63 -6 63 4 0 29
-13 55 -30z m192 -2 c-20 -66 -59 -118 -87 -118 -13 0 -9 75 5 92 17 21 59 48
75 48 9 0 11 -7 7 -22z m-178 -219 l55 -31 49 27 c28 15 53 25 55 22 11 -11
-28 -67 -67 -96 -31 -22 -46 -28 -59 -21 -32 17 -100 93 -100 111 0 25 3 24
67 -12z"/>
<path d="M2730 1570 c0 -5 5 -10 11 -10 5 0 7 5 4 10 -3 6 -8 10 -11 10 -2 0
-4 -4 -4 -10z"/>
<path d="M2856 1563 c-6 -14 -5 -15 5 -6 7 7 10 15 7 18 -3 3 -9 -2 -12 -12z"/>
<path d="M3380 1539 c6 -10 13 -19 16 -19 3 0 2 5 -1 10 -3 6 -1 10 6 10 16 0
3 13 -16 16 -12 2 -12 -2 -5 -17z"/>
<path d="M3806 1537 c3 -10 9 -15 12 -12 3 3 0 11 -7 18 -10 9 -11 8 -5 -6z"/>
<path d="M5235 1541 c-3 -5 -1 -12 4 -15 5 -3 11 1 15 9 6 16 -9 21 -19 6z"/>
<path d="M5880 1539 c0 -5 5 -7 10 -4 6 3 10 8 10 11 0 2 -4 4 -10 4 -5 0 -10
-5 -10 -11z"/>
<path d="M6510 1534 c0 -8 5 -12 10 -9 6 3 10 10 10 16 0 5 -4 9 -10 9 -5 0
-10 -7 -10 -16z"/>
<path d="M6705 1540 c3 -5 8 -10 11 -10 2 0 4 5 4 10 0 6 -5 10 -11 10 -5 0
-7 -4 -4 -10z"/>
<path d="M6995 1540 c-3 -5 -1 -10 4 -10 6 0 11 5 11 10 0 6 -2 10 -4 10 -3 0
-8 -4 -11 -10z"/>
<path d="M4306 1522 c-3 -5 1 -9 9 -9 8 0 12 4 9 9 -3 4 -7 8 -9 8 -2 0 -6 -4
-9 -8z"/>
</g>
</svg>
